<?xml version="1.0" encoding="iso-8859-1"?>
<!-- Uploaded to: SVG Repo, www.svgrepo.com, Generator: SVG Repo Mixer Tools -->
<svg height="800px" width="800px" version="1.1" id="Layer_1" xmlns="http://www.w3.org/2000/svg" xmlns:xlink="http://www.w3.org/1999/xlink" 
	 viewBox="0 0 512 512" xml:space="preserve">
<path style="fill:#E5E5E5;" d="M317.217,256c0-90.635,49.245-169.762,122.435-212.103C403.634,23.061,361.82,11.13,317.217,11.13
	c-135.238,0-244.87,109.631-244.87,244.87s109.631,244.87,244.87,244.87c44.603,0,86.417-11.931,122.435-32.767
	C366.463,425.762,317.217,346.635,317.217,256z"/>
<g>
	<circle style="fill:#AFAFAF;" cx="148.035" cy="256" r="22.261"/>
	<circle style="fill:#AFAFAF;" cx="203.687" cy="356.174" r="33.205"/>
</g>
<path d="M445.226,458.468C373.132,416.764,328.348,339.181,328.348,256S373.132,95.238,445.226,53.532
	c3.439-1.989,5.556-5.661,5.556-9.635c0-3.972-2.117-7.645-5.556-9.635C406.479,11.848,362.214,0,317.217,0
	c-68.381,0-132.667,26.628-181.02,74.981C87.846,123.333,61.217,187.62,61.217,256s26.628,132.667,74.98,181.019
	C184.55,485.372,248.836,512,317.217,512c44.997,0,89.261-11.848,128.009-34.263c3.439-1.989,5.556-5.661,5.556-9.635
	S448.666,460.457,445.226,458.468z M317.217,489.739C188.334,489.739,83.478,384.884,83.478,256S188.334,22.261,317.217,22.261
	c34.768,0,69.049,7.742,100.198,22.519c-30.887,21.201-56.938,49.043-76.016,81.406c-23.101,39.19-35.312,84.078-35.312,129.814
	s12.211,90.624,35.314,129.814c19.079,32.363,45.129,60.205,76.016,81.406C386.266,481.997,351.986,489.739,317.217,489.739z"/>
<path d="M196.852,111.304c2.459,0,4.935-0.811,6.994-2.479c33.507-27.112,75.745-42.043,118.936-42.043
	c6.146,0,11.13-4.983,11.13-11.13s-4.984-11.13-11.13-11.13c-48.272,0-95.482,16.691-132.939,46.999
	c-4.779,3.867-5.518,10.876-1.651,15.654C190.393,109.893,193.608,111.304,196.852,111.304z"/>
<path d="M173.454,133.544c3.032,0,6.053-1.23,8.252-3.646c0.058-0.065,0.174-0.194,0.23-0.259c4.029-4.643,3.533-11.672-1.11-15.702
	c-4.608-3.998-11.57-3.539-15.613,1.01c-0.004,0.004-0.008,0.009-0.01,0.01c-4.123,4.552-3.77,11.575,0.778,15.703
	C168.112,132.592,170.786,133.544,173.454,133.544z"/>
<path d="M180.313,256c0-18.412-14.979-33.391-33.391-33.391S113.53,237.588,113.53,256s14.979,33.391,33.391,33.391
	S180.313,274.412,180.313,256z M146.922,267.13c-6.137,0-11.13-4.993-11.13-11.13c0-6.137,4.993-11.13,11.13-11.13
	s11.13,4.993,11.13,11.13C158.052,262.137,153.059,267.13,146.922,267.13z"/>
<path d="M202.574,311.838c-24.447,0-44.336,19.889-44.336,44.336c0,24.447,19.889,44.336,44.336,44.336s44.336-19.889,44.336-44.336
	C246.91,331.727,227.021,311.838,202.574,311.838z M202.574,378.249c-12.172,0-22.075-9.903-22.075-22.075
	s9.903-22.075,22.075-22.075c12.172,0,22.075,9.903,22.075,22.075S214.746,378.249,202.574,378.249z"/>
</svg>